<?xml version="1.0" encoding="UTF-8" standalone="no"?>
<!-- Created with Inkscape (http://www.inkscape.org/) -->

<svg
   width="142.08859mm"
   height="29.941666mm"
   viewBox="0 0 142.08859 29.941666"
   version="1.1"
   id="svg1"
   xml:space="preserve"
   inkscape:export-filename="logo.svg"
   inkscape:export-xdpi="96"
   inkscape:export-ydpi="96"
   xmlns:inkscape="http://www.inkscape.org/namespaces/inkscape"
   xmlns:sodipodi="http://sodipodi.sourceforge.net/DTD/sodipodi-0.dtd"
   xmlns="http://www.w3.org/2000/svg"
   xmlns:svg="http://www.w3.org/2000/svg"><sodipodi:namedview
     id="namedview1"
     pagecolor="#ffffff"
     bordercolor="#000000"
     borderopacity="0.25"
     inkscape:showpageshadow="2"
     inkscape:pageopacity="0.0"
     inkscape:pagecheckerboard="0"
     inkscape:deskcolor="#d1d1d1"
     inkscape:document-units="mm"><inkscape:page
       x="-8.0594867e-22"
       y="0"
       width="142.08859"
       height="29.941666"
       id="page2"
       margin="0"
       bleed="0" /></sodipodi:namedview><defs
     id="defs1" /><g
     inkscape:label="Layer 1"
     inkscape:groupmode="layer"
     id="layer1"
     transform="translate(-34.848028,-122.49842)"><path
       style="fill:#132b4d;fill-opacity:0.996078"
       d="m 34.848027,152.35514 v -0.0844 l 1.252973,-1.60584 1.252973,-1.60584 1.834505,-2.36099 1.834505,-2.36099 0.212542,-0.28303 0.212542,-0.28303 1.284244,-1.64869 1.284243,-1.64869 1.02778,-1.28781 1.02778,-1.28782 1.969815,-2.46831 1.969815,-2.46831 0.381433,-0.40244 0.381434,-0.40244 0.273343,0.002 0.273344,0.002 1.009242,0.75439 1.009241,0.75439 0.0734,-0.0854 0.0734,-0.0854 0.482379,-0.6439 0.482378,-0.64391 1.272084,-1.77074 1.272084,-1.77075 1.987248,-2.79026 1.987249,-2.79026 0.291814,-0.29513 0.291814,-0.29512 h 0.293166 0.293166 l 0.390759,0.41077 0.390758,0.41078 0.629019,0.89767 0.629019,0.89768 2.561686,3.41265 2.561686,3.41264 1.043412,-0.92411 1.043411,-0.92412 0.321953,-0.20143 0.321953,-0.20144 0.166026,-4e-4 0.166027,-4e-4 0.380577,0.40244 0.380578,0.40245 0.521447,0.69756 0.521447,0.69757 2.20514,2.82693 2.20514,2.82693 0.9122,1.15626 0.912201,1.15625 1.708381,2.18759 1.70838,2.18758 3.120917,3.94998 3.120917,3.94998 0.0347,0.15493 0.0347,0.15492 H 71.719535 53.306676 v -0.10701 -0.10701 l 0.384816,-0.42594 0.384817,-0.42595 0.718633,-0.47343 0.718632,-0.47344 0.747782,-0.37531 0.747782,-0.37531 1.448446,-0.50277 1.448446,-0.50277 1.395474,-0.35986 1.395473,-0.35986 1.341472,-0.27048 1.341471,-0.27049 3.32685,-0.54614 3.326849,-0.54613 1.663425,-0.33056 1.663425,-0.33057 0.804883,-0.25787 0.804883,-0.25788 0.532574,-0.29454 0.532574,-0.29453 0.319776,-0.45654 0.319776,-0.45654 -1.9e-5,-0.50932 -2e-5,-0.50933 -0.345933,-0.6439 -0.345933,-0.64391 -0.77063,-0.96586 -0.77063,-0.96586 -1.935781,-1.93712 -1.935781,-1.93713 -0.954608,-0.82862 -0.954607,-0.82861 -0.04753,0.0475 -0.04753,0.0475 0.214211,0.30356 0.214211,0.30356 2.258607,3.40772 2.258607,3.40772 0.111659,0.40206 0.111659,0.40206 5.98e-4,0.34001 5.99e-4,0.34 -0.06689,0.17433 -0.0669,0.17433 -0.394549,0.20128 -0.39455,0.20128 -0.801819,0.16562 -0.801818,0.16562 -1.017239,0.16279 -1.017239,0.16279 -4.319017,0.54003 -4.319018,0.54004 -2.493179,0.37467 -2.49318,0.37466 -2.118916,0.43061 -2.118916,0.43061 -1.371876,0.42122 -1.371875,0.42122 -0.966445,0.36881 -0.966444,0.36881 -1.222909,0.60768 -1.222908,0.60769 -0.868715,0.568 -0.868715,0.56801 -0.938708,0.76937 -0.938708,0.76937 H 38.71179 34.84803 Z m 16.580589,-10.03793 1.180495,-0.86369 3.541485,-2.64654 3.541485,-2.64654 0.252986,-0.13385 0.252987,-0.13385 0.111582,0.11158 0.111582,0.11158 -0.187624,1.58862 -0.187624,1.58861 -0.07966,0.62413 -0.07966,0.62413 0.180508,-0.19486 0.180508,-0.19485 2.244172,-2.55698 2.244173,-2.55698 0.502595,-0.5605 0.502595,-0.56049 -0.07332,-0.10781 -0.07332,-0.10781 -0.766792,-0.60691 -0.766792,-0.60692 -0.218137,-0.27731 -0.218137,-0.27732 -0.233814,-1.04174 -0.233815,-1.04174 -0.316117,-1.23416 -0.316118,-1.23415 -0.222334,-0.69757 -0.222334,-0.69756 -0.07772,-0.0856 -0.07772,-0.0856 -0.57168,0.99784 -0.571679,0.99784 -1.8748,3.05856 -1.8748,3.05855 -0.911542,1.34148 -0.911542,1.34147 -1.048596,1.39513 -1.048597,1.39513 -0.948751,1.13795 -0.948752,1.13796 -0.697565,0.77992 -0.697565,0.77992 -0.09981,0.173 -0.09981,0.173 0.314451,-0.20065 0.31445,-0.20065 z m -4.709325,-1.26845 0.891668,-0.6337 0.781992,-0.61836 0.781993,-0.61836 0.509581,-0.36311 0.509581,-0.36311 0.05477,0.0548 0.05477,0.0548 -0.537525,1.14822 -0.537524,1.14822 v 0.05 0.05 l 1.322357,-1.53003 1.322357,-1.53003 0.394726,-0.51798 0.394727,-0.51798 v -0.0886 -0.0887 l -0.741055,-0.22508 -0.741054,-0.22509 h -0.145501 -0.1455 l -1.770064,1.79757 -1.770064,1.79757 -1.019013,1.05824 -1.019013,1.05823 0.258058,-0.13186 0.258059,-0.13186 z m 48.00349,10.42379 -0.491467,-0.0831 -0.434493,-0.22166 -0.434493,-0.22166 -0.44107,-0.50109 -0.441069,-0.50108 -0.107991,-0.38877 -0.10799,-0.38878 -5.99e-4,-0.65149 -5.98e-4,-0.6515 0.295123,-0.58263 0.295124,-0.58263 0.527473,-0.39419 0.527473,-0.39419 0.459079,-0.1156 0.45908,-0.1156 h 0.579328 0.579328 l 0.496959,0.14957 0.49696,0.14956 0.432296,0.34238 0.43229,0.34239 1e-5,0.12513 v 0.12513 l -0.40135,0.33696 -0.401356,0.33697 -0.43036,-0.30725 -0.43036,-0.30726 -0.590248,-0.0639 -0.590247,-0.0639 -0.480475,0.24878 -0.480474,0.24877 -0.196357,0.3423 -0.196356,0.34231 -0.0042,0.54235 -0.0042,0.54235 0.198102,0.33828 0.198102,0.33828 0.29628,0.22084 0.296279,0.22084 0.701574,0.0447 0.701574,0.0447 0.538606,-0.33482 0.5386,-0.33481 0.420156,0.34881 0.42016,0.34882 0.002,0.075 0.002,0.075 -0.3547,0.27054 -0.35469,0.27053 -0.477016,0.20532 -0.47702,0.20531 -0.536588,0.0535 -0.536589,0.0535 z m 6.468539,-0.0153 -0.46197,-0.0817 -0.49501,-0.24606 -0.495006,-0.24606 -0.40765,-0.51476 -0.40765,-0.51476 -0.11038,-0.39744 -0.11039,-0.39744 4.5e-4,-0.53659 4.5e-4,-0.53659 0.25178,-0.54067 0.25177,-0.54068 0.50436,-0.44395 0.504346,-0.44396 0.49609,-0.16903 0.4961,-0.16904 h 0.65897 0.65897 l 0.54039,0.16048 0.54039,0.16048 0.48962,0.43098 0.48961,0.43097 0.24574,0.50763 0.24573,0.50762 -0.006,0.6988 -0.006,0.6988 -0.231,0.45281 -0.23101,0.45281 -0.31841,0.36264 -0.3184,0.36265 -0.61996,0.27267 -0.61997,0.27268 -0.53659,0.0442 -0.53659,0.0442 z m 1.58668,-1.352 0.37347,-0.18764 0.2346,-0.35128 0.23459,-0.35128 0.0726,-0.42977 0.0726,-0.42977 -0.2514,-0.50676 -0.2514,-0.50676 -0.47884,-0.24147 -0.47884,-0.24146 h -0.38379 -0.38379 l -0.47256,0.24146 -0.47256,0.24147 -0.20907,0.28713 -0.20908,0.28713 -0.0457,0.51775 -0.0457,0.51775 0.24849,0.47499 0.24848,0.47499 0.37393,0.19575 0.37394,0.19575 0.53826,-1.7e-4 0.53827,-1.7e-4 z m 12.12904,1.32941 -0.69757,-0.132 -0.37561,-0.19618 -0.37561,-0.19617 -0.12952,-0.10321 -0.12951,-0.1032 0.28603,-0.4468 0.28602,-0.4468 0.015,-0.0284 0.0149,-0.0284 0.60253,0.27585 0.60252,0.27584 0.62718,0.009 0.62719,0.009 0.23542,-0.126 0.23542,-0.12599 v -0.19772 -0.19772 l -0.15085,-0.12519 -0.15085,-0.1252 -1.00281,-0.2733 -1.00282,-0.2733 -0.35139,-0.21526 -0.35138,-0.21525 -0.15837,-0.30626 -0.15838,-0.30626 v -0.38627 -0.38628 l 0.15712,-0.30384 0.15712,-0.30384 0.32915,-0.27695 0.32914,-0.27695 0.3991,-0.11085 0.39911,-0.11084 0.65842,-6e-4 0.65841,-6e-4 0.52557,0.16974 0.52558,0.16975 0.26226,0.19782 0.26225,0.19782 -0.2557,0.46415 -0.25571,0.46415 -0.0265,0.0343 -0.0265,0.0343 -0.44412,-0.22658 -0.44413,-0.22657 -0.67443,-0.063 -0.67442,-0.063 -0.23332,0.12487 -0.23332,0.12486 v 0.20839 0.20839 l 0.24147,0.15294 0.24146,0.15295 0.89519,0.22246 0.89519,0.22245 0.3684,0.22768 0.36839,0.22768 0.15838,0.30626 0.15837,0.30627 v 0.47239 0.47239 l -0.24146,0.35829 -0.24147,0.35829 -0.48293,0.24051 -0.48293,0.24052 -0.53659,0.0538 -0.53659,0.0538 z m 6.42529,0.0416 -0.4967,-0.0883 -0.25452,-0.13119 -0.25453,-0.1312 -0.30436,-0.28201 -0.30435,-0.28201 -0.12492,-0.21463 -0.12491,-0.21464 -0.0537,-2.17336 -0.0537,-2.17336 0.66205,1.7e-4 0.66204,1.8e-4 0.0355,1.90489 0.0355,1.90489 0.15592,0.23498 0.15591,0.23498 0.25082,0.13423 0.25082,0.13424 0.55429,-0.008 0.55429,-0.008 0.29236,-0.32721 0.29237,-0.32721 0.0684,-0.46291 0.0684,-0.46291 -0.034,-1.4758 -0.034,-1.4758 0.72439,1.8e-4 0.7244,1.8e-4 v 1.64878 1.64878 l -0.10943,0.57703 -0.10944,0.57704 -0.29849,0.37664 -0.29849,0.37664 -0.47744,0.2347 -0.47745,0.23469 -0.59025,0.0522 -0.59025,0.0522 z m 27.59443,-0.002 -0.48293,-0.082 -0.42927,-0.17891 -0.42927,-0.17891 -0.41524,-0.3972 -0.41523,-0.3972 -0.19949,-0.42927 -0.19948,-0.42927 -0.002,-0.72785 -0.002,-0.72784 0.15946,-0.38163 0.15945,-0.38163 0.31558,-0.39845 0.31559,-0.39846 0.5641,-0.30702 0.5641,-0.30702 0.78092,-0.0501 0.78092,-0.0501 0.50263,0.12657 0.50264,0.12656 0.46757,0.3217 0.46756,0.3217 -0.003,0.0753 -0.003,0.0753 -0.37014,0.39806 -0.37014,0.39806 -0.61965,-0.32811 -0.61964,-0.32811 -0.56536,0.0566 -0.56536,0.0566 -0.36225,0.22388 -0.36224,0.22388 -0.17241,0.36331 -0.1724,0.36331 v 0.53133 0.53133 l 0.24288,0.36465 0.24289,0.36465 0.40069,0.19649 0.40069,0.19648 0.6408,-0.003 0.64081,-0.003 0.21807,-0.1167 0.21807,-0.11671 v -0.37184 -0.37183 h -0.81049 -0.81049 l 0.0324,-0.56342 0.0324,-0.56342 1.42196,-0.0299 1.42196,-0.03 v 1.32217 1.32217 l -0.58288,0.29514 -0.58289,0.29514 -0.62444,0.10227 -0.62444,0.10227 -0.10731,-0.012 -0.10732,-0.012 z m 20.39037,0.004 -0.59025,-0.0774 -0.37561,-0.19372 -0.37562,-0.19371 -0.3541,-0.26918 -0.3541,-0.26919 -0.27982,-0.47748 -0.27982,-0.47748 -0.0495,-0.77102 -0.0495,-0.77103 0.24225,-0.56314 0.24226,-0.56315 0.48365,-0.42572 0.48365,-0.42573 0.54039,-0.16048 0.5404,-0.16048 h 0.60495 0.60495 l 0.52923,0.1579 0.52924,0.15789 0.40244,0.33285 0.40244,0.33285 v 0.14204 0.14205 l -0.37934,0.33307 -0.37935,0.33307 h -0.0904 -0.0904 l -0.14729,-0.17798 -0.14729,-0.17799 -0.42927,-0.19527 -0.42927,-0.19527 -0.36856,-0.002 -0.36856,-0.002 -0.43632,0.21619 -0.43633,0.2162 -0.20741,0.28608 -0.20741,0.28608 -0.0411,0.54407 -0.0411,0.54407 0.24848,0.47499 0.24848,0.47499 0.37561,0.20221 0.37562,0.2022 0.65785,-0.0375 0.65785,-0.0376 0.39335,-0.30003 0.39335,-0.30002 0.23661,0.15892 0.23661,0.15892 0.25889,0.24627 0.25888,0.24626 -0.40587,0.35084 -0.40586,0.35084 -0.49693,0.15779 -0.49692,0.15778 -0.32195,0.0481 -0.32196,0.0481 z m -62.78087,-2.9013 v -2.79026 l 0.72439,0.004 0.7244,0.004 0.33994,0.45192 0.33994,0.45191 0.98002,1.28189 0.98002,1.2819 -0.0322,-1.73814 -0.0322,-1.73815 0.67074,1.5e-4 0.67073,1.5e-4 v 2.79026 2.79026 h -0.63086 -0.63086 l -1.38135,-1.8221 -1.38134,-1.8221 -0.0294,1.8221 -0.0294,1.8221 h -0.64137 -0.64137 z m 19.74646,0 v -2.79026 h 0.69756 0.69757 v 2.25367 2.25368 h 1.39513 1.39513 v 0.53659 0.53658 h -2.0927 -2.09269 z m 6.00979,0.59025 v -2.20001 h -0.85854 -0.85854 v -0.4205 -0.42049 l -0.0651,-0.16976 -0.0651,-0.16975 h 2.5871 2.58711 v 0.59025 0.59025 h -0.96586 -0.96586 v 2.20001 2.20001 h -0.69756 -0.69757 z m 4.29271,-0.59025 v -2.79026 h 0.69756 0.69757 v 2.79026 2.79026 h -0.69757 -0.69756 z m 3.11221,0 v -2.79026 h 0.69377 0.69378 l 1.31843,1.73017 1.31844,1.73017 0.0295,-1.73017 0.0295,-1.73017 h 0.64125 0.64125 v 2.79026 2.79026 h -0.63703 -0.63703 l -1.37518,-1.7907 -1.37517,-1.7907 -0.0294,1.7907 -0.0294,1.7907 h -0.64132 -0.64131 z m 16.71822,-7e-5 -0.0303,-2.79034 0.67074,7e-5 0.67073,8e-5 v 2.25367 2.25368 h 1.43843 1.43843 l 0.0372,0.53665 0.0372,0.53666 -2.11605,-7e-5 -2.11605,-7e-5 z m 5.38923,7e-5 v -2.79026 h 0.64173 0.64173 l 0.029,2.22684 0.029,2.22685 1.44951,0.0297 1.44951,0.0297 -7.2e-4,0.5334 -7.2e-4,0.5334 -2.11953,3.3e-4 -2.11953,3.3e-4 z m 7.35127,-7.47996 -0.42927,-0.0389 -0.83666,-0.16572 -0.83665,-0.16572 -0.71946,-0.24533 -0.71945,-0.24533 -0.71878,-0.35117 -0.71878,-0.35117 -0.32647,-0.2808 -0.32647,-0.28079 0.71111,-1.28781 0.71111,-1.28782 0.0156,-0.0213 0.0156,-0.0213 1.25502,0.62887 1.25502,0.62887 0.94155,0.21572 0.94155,0.21572 0.85855,0.0649 0.85854,0.0649 0.61453,-0.14911 0.61452,-0.1491 0.3747,-0.2858 0.3747,-0.2858 0.12777,-0.42645 0.12777,-0.42645 -0.12777,-0.42645 -0.12777,-0.42645 -0.35269,-0.26901 -0.35269,-0.26901 -0.47556,-0.16914 -0.47556,-0.16914 -1.77074,-0.43247 -1.77074,-0.43247 -0.99434,-0.46765 -0.99434,-0.46764 -0.64214,-0.6125 -0.64214,-0.61249 -0.28453,-0.60086 -0.28454,-0.60085 -0.0511,-0.97226 -0.0511,-0.97226 0.18326,-0.63751 0.18325,-0.63751 0.30755,-0.48293 0.30755,-0.48293 0.40812,-0.38994 0.40812,-0.38994 0.45411,-0.28089 0.45412,-0.28088 0.78004,-0.2605 0.78004,-0.2605 0.96586,-0.0999 0.96586,-0.0999 1.28781,0.0787 1.28781,0.0787 0.53659,0.12334 0.53659,0.12333 0.32195,0.11822 0.32196,0.11822 0.83171,0.37913 0.83171,0.37912 v 0.0742 0.0742 l -0.64814,1.36516 -0.64814,1.36516 -0.0762,-0.0344 -0.0763,-0.0344 -0.80488,-0.39537 -0.80488,-0.39538 -0.85854,-0.22953 -0.85855,-0.22953 -0.86409,-0.0596 -0.8641,-0.0596 -0.60013,0.17446 -0.60013,0.17446 -0.33334,0.37966 -0.33335,0.37966 v 0.53798 0.53798 l 0.29512,0.27421 0.29513,0.2742 0.40022,0.20465 0.40022,0.20465 0.83393,0.26101 0.83394,0.26101 0.70957,0.16223 0.70957,0.16223 0.68556,0.23286 0.68556,0.23287 0.74749,0.38779 0.74749,0.3878 0.54032,0.54179 0.54032,0.54179 0.29757,0.61151 0.29756,0.61151 0.10488,0.553 0.10487,0.553 v 0.61796 0.61795 l -0.21578,0.69862 -0.21578,0.69863 -0.46182,0.62733 -0.46182,0.62734 -0.58943,0.40596 -0.58944,0.40596 -0.75612,0.26295 -0.75612,0.26296 -0.74028,0.107 -0.74027,0.107 -0.9122,-0.0159 -0.9122,-0.0159 z m -82.737489,-0.64698 0.17031,-0.40482 0.684964,-1.8244 0.684964,-1.82441 0.853012,-2.25367 0.853013,-2.25367 1.139616,-2.95124 1.139616,-2.95124 0.306653,-0.80488 0.306653,-0.80489 2.482059,-0.0288 2.482053,-0.0288 v 0.11701 0.11702 l 1.24638,3.02401 1.246366,3.024 0.7856,1.93172 0.78559,1.93172 0.92858,2.25368 0.92859,2.25367 0.36629,0.89886 0.3663,0.89886 v 0.0402 0.0402 h -1.97745 -1.97746 l -0.732316,-1.87687 -0.73231,-1.87688 -3.558933,-10e-4 -3.558932,-0.001 -0.272667,0.72439 -0.272668,0.7244 -0.417883,1.12684 -0.417883,1.12683 -2.004208,0.0292 -2.004209,0.0292 z m 11.074683,-6.54876 -0.0533,-0.18781 -1.139743,-2.92447 -1.139744,-2.92446 v -0.12515 -0.12515 l -0.0523,0.0523 -0.0523,0.0523 -1.128193,3.09586 -1.128193,3.09586 v 0.0893 0.0893 h 2.373507 2.373506 z m 9.042916,-1.3137 v -8.26442 h 1.98537 1.98538 v 6.6523 6.65229 l 3.67563,0.0282 3.67564,0.0282 v 1.5561 1.55611 l -5.66101,0.0278 -5.66101,0.0278 z m 15.23911,1.55516 v -6.70736 h -2.40899 -2.40899 l -0.0325,-1.51174 -0.0325,-1.51174 0.0447,-0.0444 0.0447,-0.0444 h 6.68947 6.68947 v 1.55611 1.55611 l -2.38782,-2e-5 -2.38782,-2e-5 0.0284,6.70738 0.0284,6.70738 h -1.93331 -1.93332 z m 11.02821,-1.5561 0.0281,-8.26348 h 1.93041 1.93041 v 8.26347 8.26347 l -1.95855,1e-5 -1.95855,1e-5 z m 11.03314,5.98155 -0.85099,-2.27909 -0.41744,-1.12684 -0.41743,-1.12684 -0.41683,-1.12683 -0.41682,-1.12684 -0.71017,-1.87806 -0.71016,-1.87806 -0.63631,-1.75002 -0.63631,-1.75001 v -0.10122 -0.10122 h 1.91714 1.91713 l 0.16982,0.4561 0.16982,0.4561 1.35437,3.75613 1.35437,3.75612 0.60992,1.68993 0.60991,1.68992 0.0569,3.3e-4 0.0569,3.3e-4 1.33327,-3.94393 1.33328,-3.94393 0.66116,-1.93172 0.66115,-1.93172 1.89261,-0.0293 1.89261,-0.0293 v 0.0529 0.0529 l -1.01145,2.82033 -1.01145,2.82033 -1.39174,3.86344 -1.39174,3.86344 -0.54805,1.49872 -0.54805,1.49872 v 0.0306 0.0306 l -2.0122,-0.001 -2.01221,-10e-4 z m 13.03155,-5.98156 v -8.26347 h 1.98538 1.98538 v 8.26347 8.26347 h -1.98538 -1.98538 z"
       id="path1"
       inkscape:export-filename="path1.svg"
       inkscape:export-xdpi="96"
       inkscape:export-ydpi="96" /></g></svg>
